<svg width="247" height="39" fill="none" xmlns="http://www.w3.org/2000/svg"><rect width="247" height="39" rx="5" fill="#404242"/><path d="M31.156 25V13.625h3.36c1.005 0 1.895.224 2.672.672A4.574 4.574 0 0139 16.203c.427.823.64 1.766.64 2.828v.57c0 1.079-.215 2.027-.648 2.844a4.495 4.495 0 01-1.836 1.89c-.791.444-1.7.665-2.726.665h-3.274zm1.977-9.781v8.203h1.289c1.036 0 1.83-.323 2.383-.969.557-.65.84-1.583.851-2.797v-.633c0-1.234-.268-2.177-.804-2.828-.537-.65-1.316-.976-2.336-.976h-1.383zm12.015 9.937c-1.203 0-2.18-.377-2.93-1.133-.744-.76-1.116-1.77-1.116-3.03v-.235c0-.844.161-1.596.484-2.258.328-.667.786-1.185 1.375-1.555a3.625 3.625 0 011.969-.554c1.15 0 2.039.367 2.664 1.101.63.735.945 1.774.945 3.117v.766h-5.523c.057.698.289 1.25.695 1.656.411.407.927.61 1.547.61.87 0 1.578-.352 2.125-1.055l1.023.977a3.441 3.441 0 01-1.36 1.18c-.562.275-1.194.413-1.898.413zm-.226-7.242c-.521 0-.943.182-1.266.547-.317.365-.52.872-.61 1.523h3.618v-.14c-.042-.636-.21-1.115-.508-1.438-.297-.328-.708-.492-1.234-.492zm12.5 2.945c0 1.308-.297 2.352-.89 3.133-.594.776-1.391 1.164-2.391 1.164-.927 0-1.67-.304-2.227-.914v4.008h-1.898V16.547h1.75l.078.86c.557-.678 1.315-1.016 2.273-1.016 1.031 0 1.839.385 2.422 1.156.589.765.883 1.83.883 3.195v.117zm-1.89-.164c0-.843-.17-1.513-.509-2.008-.333-.494-.812-.742-1.437-.742-.776 0-1.333.32-1.672.961v3.75c.344.657.906.985 1.688.985.604 0 1.075-.243 1.414-.727.343-.49.515-1.23.515-2.219zM61.054 25h-1.899V13h1.899v12zm1.718-4.305c0-.828.164-1.573.493-2.234.328-.667.789-1.177 1.382-1.531.594-.36 1.276-.54 2.047-.54 1.14 0 2.065.368 2.774 1.102.713.735 1.099 1.709 1.156 2.922l.008.445c0 .834-.162 1.578-.485 2.235a3.52 3.52 0 01-1.375 1.523c-.593.36-1.28.54-2.062.54-1.193 0-2.148-.397-2.867-1.188-.714-.797-1.07-1.857-1.07-3.18v-.094zm1.899.164c0 .87.18 1.552.539 2.047.36.49.86.735 1.5.735s1.138-.25 1.492-.75c.36-.5.54-1.232.54-2.196 0-.854-.186-1.53-.555-2.03-.365-.5-.862-.75-1.493-.75-.62 0-1.112.247-1.476.741-.365.49-.547 1.224-.547 2.203zm10.398 1.422l1.72-5.734h2.022l-3.359 9.734c-.516 1.422-1.39 2.133-2.625 2.133-.276 0-.58-.047-.914-.14v-1.47l.36.024c.479 0 .838-.088 1.078-.265.244-.172.437-.464.578-.875l.273-.727-2.969-8.414h2.047l1.79 5.734zm16.43.727l1.625-6.461h1.445L92.11 25h-1.172l-2.055-6.406-2 6.406H85.71l-2.453-8.453h1.437l1.664 6.328 1.97-6.328h1.163l2.008 6.46zM97.617 25h-1.445v-8.453h1.445V25zm-1.562-10.695c0-.235.07-.433.21-.594.147-.162.36-.242.641-.242s.495.08.64.242c.147.161.22.36.22.594 0 .234-.073.43-.22.586-.145.156-.359.234-.64.234s-.495-.078-.64-.234a.843.843 0 01-.211-.586zm5.843.195v2.047h1.579v1.117h-1.579v5.242c0 .339.071.594.211.766.141.166.381.25.719.25.167 0 .396-.031.688-.094V25c-.381.104-.75.156-1.11.156-.646 0-1.133-.195-1.461-.586-.328-.39-.492-.945-.492-1.664v-5.242h-1.539v-1.117h1.539V14.5h1.445zm4.719 3.07c.641-.786 1.474-1.18 2.5-1.18 1.787 0 2.688 1.008 2.703 3.024V25h-1.445v-5.594c-.005-.61-.146-1.06-.422-1.351-.271-.292-.695-.438-1.273-.438-.469 0-.881.125-1.235.375-.354.25-.63.578-.828.985V25h-1.445V13h1.445v4.57zm14.016 3.844l.219 1.5.32-1.352 2.25-7.937h1.266l2.195 7.938.312 1.375.243-1.532 1.765-7.781h1.508L127.953 25h-1.367l-2.344-8.29-.18-.866-.179.867-2.43 8.289h-1.367l-2.75-11.375h1.5l1.797 7.79zm10.89-.719c0-.828.162-1.573.485-2.234.328-.662.781-1.172 1.359-1.531.584-.36 1.248-.54 1.992-.54 1.151 0 2.081.4 2.789 1.196.714.797 1.071 1.857 1.071 3.18v.101c0 .823-.159 1.563-.477 2.219a3.559 3.559 0 01-1.351 1.523c-.584.365-1.256.547-2.016.547-1.146 0-2.076-.398-2.789-1.195-.708-.797-1.063-1.852-1.063-3.164v-.102zm1.454.172c0 .938.216 1.69.648 2.258.437.568 1.021.852 1.75.852.734 0 1.318-.287 1.75-.86.432-.578.648-1.385.648-2.422 0-.927-.221-1.677-.664-2.25-.437-.578-1.02-.867-1.75-.867-.713 0-1.289.284-1.726.852-.438.567-.656 1.38-.656 2.437zm12.14-3.023a4.331 4.331 0 00-.711-.055c-.948 0-1.591.404-1.929 1.211v6h-1.446v-8.453h1.407l.023.976c.474-.755 1.146-1.132 2.016-1.132.281 0 .494.036.64.109v1.344zm3.695 3.242l-.906.945V25h-1.445V13h1.445v7.258l.774-.93 2.632-2.781h1.758l-3.289 3.531L153.453 25h-1.695l-2.946-3.914zm9.102 4.07c-1.146 0-2.078-.375-2.797-1.125-.719-.755-1.078-1.763-1.078-3.023v-.266c0-.838.159-1.586.477-2.242.323-.662.77-1.177 1.343-1.547a3.382 3.382 0 011.875-.562c1.099 0 1.954.362 2.563 1.086.609.724.914 1.76.914 3.109v.602h-5.727c.021.833.263 1.507.727 2.023.469.51 1.062.766 1.781.766.511 0 .943-.105 1.297-.313.354-.208.664-.484.93-.828l.883.687c-.709 1.089-1.771 1.633-3.188 1.633zm-.18-7.578a1.92 1.92 0 00-1.468.64c-.396.423-.641 1.016-.735 1.782h4.235v-.11c-.042-.734-.24-1.302-.594-1.703-.354-.406-.833-.609-1.438-.609zm9.243.266a4.331 4.331 0 00-.711-.055c-.948 0-1.592.404-1.93 1.211v6h-1.445v-8.453h1.406l.023.976c.474-.755 1.146-1.132 2.016-1.132.281 0 .495.036.641.109v1.344zm6.257 4.914c0-.39-.148-.693-.445-.906-.292-.22-.805-.407-1.539-.563-.729-.156-1.31-.344-1.742-.562-.427-.22-.745-.48-.953-.782-.203-.302-.305-.661-.305-1.078 0-.693.292-1.279.875-1.758.589-.479 1.339-.718 2.25-.718.958 0 1.734.247 2.328.742.599.495.899 1.127.899 1.898h-1.454c0-.396-.169-.737-.507-1.023-.334-.287-.756-.43-1.266-.43-.526 0-.937.115-1.234.344-.297.229-.446.529-.446.898 0 .35.138.612.414.79.276.177.774.346 1.493.507.724.162 1.309.354 1.757.578.448.224.779.495.993.813.218.312.328.695.328 1.148 0 .756-.302 1.362-.907 1.82-.604.454-1.388.68-2.351.68-.677 0-1.276-.12-1.797-.36a2.963 2.963 0 01-1.227-1 2.457 2.457 0 01-.437-1.398h1.445c.026.485.219.87.578 1.157.365.28.844.422 1.438.422.547 0 .984-.11 1.312-.329.334-.224.5-.52.5-.89z" fill="#fff"/><path d="M180.594 25V13.625h3.898c1.287 0 2.266.258 2.938.773.672.516 1.008 1.284 1.008 2.305 0 .521-.141.99-.422 1.406-.282.417-.693.74-1.235.97.615.166 1.089.48 1.422.944.339.459.508 1.01.508 1.657 0 1.067-.344 1.888-1.031 2.46-.683.573-1.662.86-2.938.86h-4.148zm1.976-5.133v3.555h2.196c.619 0 1.104-.154 1.453-.461.349-.307.523-.734.523-1.281 0-1.183-.604-1.787-1.812-1.813h-2.36zm0-1.453h1.938c.614 0 1.094-.138 1.437-.414.349-.281.524-.677.524-1.188 0-.562-.162-.968-.485-1.218-.317-.25-.815-.375-1.492-.375h-1.922v3.195zm13.055 5.758c-.557.656-1.349.984-2.375.984-.917 0-1.612-.268-2.086-.804-.469-.537-.703-1.313-.703-2.329v-5.476h1.898V22c0 1.073.446 1.61 1.336 1.61.922 0 1.545-.331 1.867-.993v-6.07h1.899V25h-1.789l-.047-.828zm5.531-7.625l.055.976c.625-.755 1.445-1.132 2.461-1.132 1.76 0 2.656 1.007 2.687 3.023V25h-1.898v-5.477c0-.536-.117-.932-.352-1.187-.229-.26-.606-.39-1.132-.39-.766 0-1.336.346-1.711 1.038V25h-1.899v-8.453h1.789zm6.789 4.164c0-1.302.302-2.346.907-3.133.604-.791 1.414-1.187 2.429-1.187.896 0 1.62.312 2.172.937V13h1.899v12h-1.719l-.094-.875c-.568.688-1.325 1.031-2.273 1.031-.99 0-1.792-.398-2.407-1.195-.609-.797-.914-1.88-.914-3.25zm1.899.164c0 .86.164 1.531.492 2.016.333.479.805.718 1.414.718.776 0 1.344-.346 1.703-1.039v-3.61c-.349-.676-.911-1.015-1.687-1.015-.615 0-1.089.245-1.422.735-.334.484-.5 1.216-.5 2.195zM219.352 25h-1.899V13h1.899v12zm5.796.156c-1.203 0-2.179-.377-2.929-1.133-.745-.76-1.117-1.77-1.117-3.03v-.235c0-.844.161-1.596.484-2.258.328-.667.786-1.185 1.375-1.555a3.624 3.624 0 011.969-.554c1.151 0 2.039.367 2.664 1.101.63.735.945 1.774.945 3.117v.766h-5.523c.057.698.289 1.25.695 1.656.411.407.927.61 1.547.61.87 0 1.578-.352 2.125-1.055l1.023.977a3.435 3.435 0 01-1.359 1.18c-.563.275-1.195.413-1.899.413zm-.226-7.242c-.521 0-.943.182-1.266.547-.317.365-.521.872-.609 1.523h3.617v-.14c-.042-.636-.211-1.115-.508-1.438-.297-.328-.708-.492-1.234-.492zm4.742 2.797c0-1.302.302-2.346.906-3.133.604-.791 1.414-1.187 2.43-1.187.896 0 1.62.312 2.172.937V13h1.898v12h-1.718l-.094-.875c-.568.688-1.326 1.031-2.274 1.031-.989 0-1.791-.398-2.406-1.195-.609-.797-.914-1.88-.914-3.25zm1.898.164c0 .86.165 1.531.493 2.016.333.479.804.718 1.414.718.776 0 1.343-.346 1.703-1.039v-3.61c-.349-.676-.912-1.015-1.688-1.015-.614 0-1.088.245-1.422.735-.333.484-.5 1.216-.5 2.195z" fill="url(#paint0_linear)"/><g clip-path="url(#clip0)"><path d="M12.115 12.204l1.884 3.336-1.73 3.058a.968.968 0 000 .954l1.73 3.065-1.884 3.337a1.985 1.985 0 01-.846-.781l-3-5.115a1.942 1.942 0 010-1.962l3-5.115c.197-.335.492-.606.846-.777z" fill="url(#paint1_linear)"/><path opacity=".7" d="M12.27 18.601a.967.967 0 000 .951L14 22.617l-1.884 3.337a1.986 1.986 0 01-.847-.782l-3-5.114c-.238-.404 1.096-.887 4-1.453v-.004z" fill="url(#paint2_linear)"/><path opacity=".5" d="M12.308 12.54l1.692 3-.28.48-1.493-2.48c-.43-.69-1.088-.332-1.912 1.064l.123-.207.831-1.416c.196-.334.488-.604.839-.777l.196.336h.004z" fill="url(#paint3_linear)"/><path d="M20.73 12.981l3 5.115a1.929 1.929 0 010 1.962l-3 5.114a1.983 1.983 0 01-.73.719 2.03 2.03 0 01-1 .263h-3l3.73-6.602a.968.968 0 000-.95L16 12h3c.35 0 .695.091 1 .263.303.172.555.42.73.718z" fill="url(#paint4_linear)"/><path d="M18.846 26.131l-2.961.027 3.584-6.636a1.004 1.004 0 000-.958L15.885 12h.677l3.761 6.533a1.004 1.004 0 01-.004 1.012c-.81 1.38-1.613 2.765-2.411 4.152-.73 1.26-.416 2.072.938 2.434z" fill="url(#paint5_linear)"/><path d="M13 26.154c-.308 0-.616-.072-.885-.2l3.7-6.549a.666.666 0 000-.656l-3.7-6.545c.275-.134.578-.204.885-.204h3l3.73 6.601a.966.966 0 010 .951L16 26.154h-3z" fill="url(#paint6_linear)"/><path opacity=".6" d="M19.47 18.749L15.654 12H16l3.731 6.601a.966.966 0 010 .951l-3.73 6.602h-.347l3.816-6.749a.666.666 0 000-.656z" fill="url(#paint7_linear)"/><path opacity=".6" d="M15.815 18.748l-3.7-6.544c.116-.06.254-.106.385-.144.815 1.438 2.02 3.62 3.615 6.541a.967.967 0 010 .951l-3.673 6.526c-.13-.037-.2-.064-.323-.12l3.692-6.549a.666.666 0 000-.657l.004-.003z" fill="url(#paint8_linear)"/></g><defs><linearGradient id="paint0_linear" x1="99.667" y1="25" x2="99.667" y2="13.5" gradientUnits="userSpaceOnUse"><stop stop-color="#EF7409"/><stop offset="1" stop-color="#FAB743"/></linearGradient><linearGradient id="paint1_linear" x1="11.001" y1="25.954" x2="5.023" y2="16.158" gradientUnits="userSpaceOnUse"><stop stop-color="#EB6F07"/><stop offset="1" stop-color="#FAB743"/></linearGradient><linearGradient id="paint2_linear" x1="12.906" y1="24.755" x2="9.804" y2="21.505" gradientUnits="userSpaceOnUse"><stop stop-color="#D96504"/><stop offset="1" stop-color="#D96504" stop-opacity="0"/></linearGradient><linearGradient id="paint3_linear" x1="11.863" y1="12.536" x2="13.492" y2="15.203" gradientUnits="userSpaceOnUse"><stop stop-color="#EB6F07"/><stop offset="1" stop-color="#EB720A" stop-opacity="0"/></linearGradient><linearGradient id="paint4_linear" x1="20" y1="26.154" x2="14.666" y2="14.828" gradientUnits="userSpaceOnUse"><stop stop-color="#EE6F05"/><stop offset="1" stop-color="#FAB743"/></linearGradient><linearGradient id="paint5_linear" x1="14.366" y1="26.158" x2="23.153" y2="23.885" gradientUnits="userSpaceOnUse"><stop stop-color="#D96504" stop-opacity=".8"/><stop offset=".498" stop-color="#D96504" stop-opacity=".2"/><stop offset="1" stop-color="#D96504" stop-opacity="0"/></linearGradient><linearGradient id="paint6_linear" x1="15.986" y1="26.154" x2="10.541" y2="14.966" gradientUnits="userSpaceOnUse"><stop stop-color="#FFA95F"/><stop offset="1" stop-color="#FFEBC8"/></linearGradient><linearGradient id="paint7_linear" x1="15.995" y1="12.156" x2="20.671" y2="12.905" gradientUnits="userSpaceOnUse"><stop stop-color="#fff" stop-opacity=".5"/><stop offset="1" stop-color="#fff" stop-opacity=".1"/></linearGradient><linearGradient id="paint8_linear" x1="11.55" y1="26.667" x2="17.331" y2="25.799" gradientUnits="userSpaceOnUse"><stop stop-color="#fff" stop-opacity=".5"/><stop offset="1" stop-color="#fff" stop-opacity=".1"/></linearGradient><clipPath id="clip0"><path fill="#fff" transform="translate(8 12)" d="M0 0h16v14.154H0z"/></clipPath></defs></svg>