<svg fill="none" height="39" viewBox="0 0 185 39" width="185" xmlns="http://www.w3.org/2000/svg" xmlns:xlink="http://www.w3.org/1999/xlink"><linearGradient id="a" gradientUnits="userSpaceOnUse" x1="11.0007" x2="5.02344" y1="25.9538" y2="16.158"><stop offset="0" stop-color="#eb6f07"/><stop offset="1" stop-color="#fab743"/></linearGradient><linearGradient id="b" gradientUnits="userSpaceOnUse" x1="12.9061" x2="9.80444" y1="24.7553" y2="21.5047"><stop offset="0" stop-color="#d96504"/><stop offset="1" stop-color="#d96504" stop-opacity="0"/></linearGradient><linearGradient id="c" gradientUnits="userSpaceOnUse" x1="11.863" x2="13.4922" y1="12.5358" y2="15.2028"><stop offset="0" stop-color="#eb6f07"/><stop offset="1" stop-color="#eb720a" stop-opacity="0"/></linearGradient><linearGradient id="d" gradientUnits="userSpaceOnUse" x1="19.9995" x2="14.6656" y1="26.1538" y2="14.828"><stop offset="0" stop-color="#ee6f05"/><stop offset="1" stop-color="#fab743"/></linearGradient><linearGradient id="e" gradientUnits="userSpaceOnUse" x1="14.3664" x2="23.1526" y1="26.1576" y2="23.8852"><stop offset="0" stop-color="#d96504" stop-opacity=".8"/><stop offset=".498" stop-color="#d96504" stop-opacity=".2"/><stop offset="1" stop-color="#d96504" stop-opacity="0"/></linearGradient><linearGradient id="f" gradientUnits="userSpaceOnUse" x1="15.9856" x2="10.5407" y1="26.1538" y2="14.9658"><stop offset="0" stop-color="#ffa95f"/><stop offset="1" stop-color="#ffebc8"/></linearGradient><linearGradient id="g"><stop offset="0" stop-color="#fff" stop-opacity=".5"/><stop offset="1" stop-color="#fff" stop-opacity=".1"/></linearGradient><linearGradient id="h" gradientUnits="userSpaceOnUse" x1="15.9947" x2="20.671" xlink:href="#g" y1="12.1557" y2="12.9048"/><linearGradient id="i" gradientUnits="userSpaceOnUse" x1="11.5501" x2="17.3308" xlink:href="#g" y1="26.6671" y2="25.7993"/><clipPath id="j"><path d="m8 12h16v14.1538h-16z"/></clipPath><rect fill="#404242" height="39" rx="5" width="185"/><path d="m31.1562 25v-11.375h3.3594c1.0052 0 1.8959.224 2.6719.6719.7813.4479 1.3854 1.0833 1.8125 1.9062s.6406 1.7657.6406 2.8281v.5704c0 1.0781-.2161 2.026-.6484 2.8437-.4271.8177-1.0391 1.4479-1.836 1.8906-.7916.4427-1.7005.6641-2.7265.6641zm1.9766-9.7812v8.2031h1.2891c1.0364 0 1.8307-.3229 2.3828-.9688.5573-.651.8411-1.5833.8515-2.7969v-.6328c0-1.2343-.2682-2.177-.8046-2.8281-.5365-.651-1.3151-.9765-2.336-.9765zm12.0156 9.9374c-1.2031 0-2.1796-.3776-2.9296-1.1328-.7448-.7604-1.1172-1.7708-1.1172-3.0312v-.2344c0-.8437.1614-1.5963.4843-2.2578.3282-.6667.7865-1.1849 1.375-1.5547.5886-.3698 1.2448-.5547 1.9688-.5547 1.151 0 2.0391.3672 2.6641 1.1016.6302.7344.9453 1.7734.9453 3.1172v.7656h-5.5235c.0573.6979.2891 1.25.6953 1.6562.4115.4063.9271.6094 1.5469.6094.8698 0 1.5781-.3515 2.125-1.0547l1.0234.9766c-.3385.5052-.7916.8984-1.3593 1.1797-.5625.276-1.1953.414-1.8985.414zm-.2265-7.2421c-.5209 0-.9427.1823-1.2657.5468-.3177.3646-.5208.8724-.6093 1.5235h3.6172v-.1406c-.0417-.6355-.211-1.1146-.5079-1.4376-.2968-.3281-.7083-.4921-1.2343-.4921zm12.5 2.9453c0 1.3073-.2969 2.3515-.8907 3.1328-.5937.776-1.3906 1.164-2.3906 1.164-.9271 0-1.6692-.3046-2.2265-.914v4.0078h-1.8985v-11.7031h1.75l.0782.8593c.5572-.677 1.3151-1.0156 2.2734-1.0156 1.0312 0 1.8385.3854 2.4219 1.1563.5885.7656.8828 1.8307.8828 3.1953zm-1.8907-.1641c0-.8437-.1692-1.513-.5078-2.0078-.3333-.4948-.8125-.7422-1.4375-.7422-.776 0-1.3333.3203-1.6718.9609v3.75c.3437.6563.9062.9844 1.6875.9844.6041 0 1.0755-.2422 1.414-.7265.3438-.4896.5156-1.2292.5156-2.2188zm5.5235 4.3047h-1.8985v-12h1.8985zm1.7187-4.3047c0-.8281.1641-1.5729.4922-2.2344.3282-.6666.7891-1.177 1.3828-1.5312.5938-.3594 1.2761-.5391 2.0469-.5391 1.1406 0 2.0651.3672 2.7735 1.1016.7135.7344 1.0989 1.7083 1.1562 2.9219l.0078.4453c0 .8333-.1614 1.5781-.4844 2.2344-.3177.6562-.776 1.164-1.375 1.5234-.5937.3594-1.2812.539-2.0625.539-1.1927 0-2.1484-.3958-2.8671-1.1874-.7136-.7969-1.0704-1.8568-1.0704-3.1797zm1.8985.1641c0 .8698.1797 1.5521.539 2.0468.3594.4896.8594.7344 1.5.7344.6407 0 1.1381-.25 1.4922-.75.3594-.5.5391-1.2317.5391-2.1953 0-.8542-.1849-1.5312-.5547-2.0312-.3646-.5-.862-.75-1.4922-.75-.6198 0-1.112.2474-1.4765.7421-.3646.4896-.5469 1.224-.5469 2.2032zm10.3984 1.4218 1.7188-5.7343h2.0234l-3.3594 9.7343c-.5156 1.4219-1.3906 2.1329-2.625 2.1329-.276 0-.5807-.0469-.914-.1407v-1.4687l.3593.0234c.4792 0 .8386-.0885 1.0782-.2656.2448-.1719.4375-.4635.5781-.875l.2734-.7266-2.9687-8.414h2.0468zm16.4297.7266 1.625-6.4609h1.4453l-2.4609 8.4531h-1.1719l-2.0547-6.4062-2 6.4062h-1.1719l-2.4531-8.4531h1.4375l1.6641 6.3281 1.9687-6.3281h1.1641zm6.1172 1.9922h-1.4453v-8.4531h1.4453zm-1.5625-10.6953c0-.2344.0703-.4323.2109-.5938.1459-.1614.3594-.2421.6406-.2421.2813 0 .4948.0807.6407.2421.1458.1615.2187.3594.2187.5938s-.0729.4297-.2187.5859c-.1459.1563-.3594.2344-.6407.2344-.2812 0-.4947-.0781-.6406-.2344-.1406-.1562-.2109-.3515-.2109-.5859zm5.8433.1953v2.0469h1.579v1.1172h-1.579v5.2421c0 .3386.071.5938.211.7657.141.1666.381.25.719.25.167 0 .396-.0313.688-.0938v1.1719c-.381.1042-.75.1562-1.11.1562-.646 0-1.133-.1953-1.461-.5859s-.492-.9453-.492-1.6641v-5.2421h-1.5389v-1.1172h1.5389v-2.0469zm4.719 3.0703c.641-.7864 1.474-1.1797 2.5-1.1797 1.787 0 2.688 1.0078 2.703 3.0235v5.5859h-1.445v-5.5938c-.005-.6093-.146-1.0598-.422-1.3515-.271-.2917-.695-.4375-1.273-.4375-.469 0-.881.125-1.235.375s-.63.5781-.828.9844v6.0234h-1.445v-12h1.445zm14.016 3.8438.219 1.5.32-1.3516 2.25-7.9375h1.266l2.195 7.9375.312 1.375.243-1.5313 1.765-7.7812h1.508l-2.758 11.375h-1.367l-2.344-8.2891-.18-.8671-.179.8671-2.43 8.2891h-1.367l-2.75-11.375h1.5zm10.89-.7188c0-.8281.162-1.5729.485-2.2344.328-.6614.781-1.1718 1.359-1.5312.584-.3594 1.248-.5391 1.992-.5391 1.151 0 2.081.3985 2.789 1.1953.714.7969 1.071 1.8568 1.071 3.1797v.1016c0 .8229-.159 1.5625-.477 2.2187-.312.6511-.763 1.1589-1.351 1.5235-.584.3646-1.256.5468-2.016.5468-1.146 0-2.076-.3984-2.789-1.1953-.708-.7968-1.063-1.8515-1.063-3.164zm1.454.1719c0 .9375.216 1.6901.648 2.2578.437.5677 1.021.8516 1.75.8516.734 0 1.318-.2865 1.75-.8594.432-.5781.648-1.3854.648-2.4219 0-.9271-.221-1.6771-.664-2.25-.437-.5781-1.02-.8672-1.75-.8672-.713 0-1.289.2839-1.726.8516-.438.5677-.656 1.3802-.656 2.4375zm12.14-3.0234c-.219-.0365-.456-.0547-.711-.0547-.948 0-1.591.4036-1.929 1.2109v6h-1.446v-8.4531h1.407l.023.9765c.474-.7552 1.146-1.1328 2.016-1.1328.281 0 .494.0365.64.1094zm3.695 3.2421-.906.9453v2.9688h-1.445v-12h1.445v7.2578l.774-.9297 2.632-2.7812h1.758l-3.289 3.5312 3.672 4.9219h-1.695zm9.102 4.0703c-1.146 0-2.078-.375-2.797-1.125-.719-.7552-1.078-1.763-1.078-3.0234v-.2656c0-.8386.159-1.586.477-2.2422.323-.6615.77-1.1771 1.343-1.5469.579-.375 1.203-.5625 1.875-.5625 1.099 0 1.954.362 2.563 1.086.609.7239.914 1.7604.914 3.1093v.6016h-5.727c.021.8333.263 1.5078.727 2.0234.469.5105 1.062.7657 1.781.7657.511 0 .943-.1042 1.297-.3125.354-.2084.664-.4844.93-.8282l.883.6875c-.709 1.0886-1.771 1.6328-3.188 1.6328zm-.18-7.5781c-.583 0-1.073.2136-1.468.6407-.396.4218-.641 1.0156-.735 1.7812h4.235v-.1094c-.042-.7344-.24-1.3021-.594-1.7031-.354-.4063-.833-.6094-1.438-.6094zm9.243.2657c-.219-.0365-.456-.0547-.711-.0547-.948 0-1.592.4036-1.93 1.2109v6h-1.445v-8.4531h1.406l.023.9765c.474-.7552 1.146-1.1328 2.016-1.1328.281 0 .495.0365.641.1094zm6.257 4.914c0-.3906-.148-.6927-.445-.9062-.292-.2188-.805-.4063-1.539-.5625-.729-.1563-1.31-.3438-1.742-.5625-.427-.2188-.745-.4792-.953-.7813-.203-.3021-.305-.6614-.305-1.0781 0-.6927.292-1.2787.875-1.7578.589-.4792 1.339-.7188 2.25-.7188.958 0 1.734.2474 2.328.7422.599.4948.899 1.1276.899 1.8984h-1.454c0-.3958-.169-.7369-.507-1.0234-.334-.2864-.756-.4297-1.266-.4297-.526 0-.937.1146-1.234.3438-.297.2291-.446.5286-.446.8984 0 .349.138.612.414.7891s.774.3463 1.493.5078c.724.1614 1.309.3542 1.757.5781.448.224.779.4948.993.8125.218.3125.328.6953.328 1.1484 0 .7553-.302 1.362-.907 1.8204-.604.4531-1.388.6796-2.351.6796-.677 0-1.276-.1197-1.797-.3593s-.93-.5729-1.227-1c-.291-.4323-.437-.8985-.437-1.3985h1.445c.026.4844.219.8698.578 1.1563.365.2812.844.4219 1.438.4219.547 0 .984-.1094 1.312-.3282.334-.2239.5-.5208.5-.8906z" fill="#fff"/><g clip-path="url(#j)"><path d="m12.1149 12.2038 1.8846 3.3365-1.7308 3.0573c-.0828.146-.1263.3103-.1263.4774s.0435.3315.1263.4775l1.7308 3.0648-1.8846 3.3365c-.3546-.1725-.6491-.4444-.8462-.7813l-2.99998-5.1143c-.17479-.2986-.26677-.6369-.26677-.9813s.09198-.6827.26677-.9813l2.99998-5.1143c.1977-.3354.4921-.606.8462-.7775z" fill="url(#a)"/><path d="m12.2693 18.6013c-.0822.1456-.1253.3092-.1253.4756s.0431.33.1253.4756l1.7308 3.0648-1.8846 3.3365c-.3547-.1725-.6491-.4444-.8462-.7813l-3-5.1143c-.23846-.4038 1.09615-.8869 4-1.4531z" fill="url(#b)" opacity=".7"/><path d="m12.3077 12.5397 1.6923 3.0006-.2807.4794-1.4923-2.4798c-.4308-.6907-1.0885-.3321-1.9116 1.0644l.1231-.2076.8308-1.4154c.1956-.3343.4872-.6048.8384-.7775l.1962.3359z" fill="url(#c)" opacity=".5"/><path d="m20.7308 12.9813 3 5.1143c.3577.6039.3577 1.3588 0 1.9627l-3 5.1142c-.1755.2982-.4277.5458-.7315.7181-.3038.1722-.6484.263-.9993.2632h-3l3.7308-6.6013c.0821-.1455.1252-.3092.1252-.4756s-.0431-.33-.1252-.4755l-3.7308-6.6014h3c.3509.0002.6955.091.9993.2633.3038.1722.556.4199.7315.718z" fill="url(#d)"/><path d="m18.8463 26.1312-2.9615.0264 3.5846-6.6353c.0801-.1475.122-.3122.122-.4793 0-.1672-.0419-.3319-.122-.4794l-3.5846-6.5636h.6769l3.7615 6.5334c.0892.1544.1357.3289.135.5063-.0006.1774-.0485.3516-.1388.5052-.8096 1.3808-1.6134 2.7647-2.4116 4.1518-.7307 1.2607-.4153 2.0722.9385 2.4345z" fill="url(#e)"/><path d="m12.9998 26.1538c-.3076 0-.6153-.0717-.8846-.2l3.7-6.5485c.1154-.2038.1154-.4529 0-.6567l-3.7-6.5448c.2751-.1336.5777-.2034.8846-.2038h3l3.7308 6.6014c.0822.1455.1253.3091.1253.4755s-.0431.3301-.1253.4756l-3.7308 6.6013z" fill="url(#f)"/><path d="m19.4697 18.7486-3.8154-6.7486h.3462l3.7307 6.6014c.0822.1455.1253.3091.1253.4755s-.0431.3301-.1253.4756l-3.7307 6.6013h-.3462l3.8154-6.7485c.1154-.2038.1154-.4529 0-.6567z" fill="url(#h)" opacity=".6"/><path d="m15.8152 18.7486-3.7-6.5448c.1154-.0604.2539-.1056.3846-.1434.8154 1.438 2.0193 3.6196 3.6154 6.541.0822.1455.1253.3092.1253.4755 0 .1664-.0431.3301-.1253.4756l-3.673 6.5259c-.1308-.0378-.2-.0642-.3231-.1208l3.6923-6.5485c.1154-.2038.1154-.4529 0-.6568z" fill="url(#i)" opacity=".6"/></g></svg>