<svg width="92" height="32" fill="none" xmlns="http://www.w3.org/2000/svg"><rect width="92" height="32" rx="4" fill="#1D1F20"/><path d="M39.3438 11.1357V21h3.3837c2.9327 0 4.6553-1.8252 4.6553-4.9355 0-3.1036-1.7295-4.9288-4.6553-4.9288h-3.3837zm1.2304 1.1075h2.0713c2.1875 0 3.4795 1.4218 3.4795 3.8349 0 2.4063-1.2783 3.8145-3.4795 3.8145h-2.0713v-7.6494zm13.6719 6.8496c-.3076.6494-.9502.998-1.9004.998-1.251 0-2.0645-.9228-2.126-2.3789v-.0547h5.2979v-.4511c0-2.2901-1.21-3.7051-3.1992-3.7051-2.0235 0-3.3223 1.5039-3.3223 3.8213 0 2.331 1.2783 3.8076 3.3223 3.8076 1.6132 0 2.7617-.7793 3.1035-2.0371h-1.1758zM52.3047 14.54c1.1689 0 1.9482.8614 1.9756 2.167h-4.0606c.0889-1.3056.9092-2.167 2.085-2.167zm8.6474-1.039c-1.0048 0-1.8867.5127-2.3583 1.3603h-.1094v-1.2304h-1.1211v9.83h1.1758v-3.5683h.1093c.4034.7793 1.251 1.2373 2.3037 1.2373 1.8731 0 3.0967-1.5108 3.0967-3.8145 0-2.3174-1.2168-3.8144-3.0967-3.8144zm-.2802 6.5693c-1.3262 0-2.167-1.0664-2.167-2.7549 0-1.6953.8408-2.7549 2.1738-2.7549 1.3467 0 2.1533 1.0323 2.1533 2.7549 0 1.7227-.8066 2.7549-2.1601 2.7549zm5.291.9297h1.1758V10.7051h-1.1758V21zm6.4873.1299c2.0986 0 3.3975-1.4492 3.3975-3.8145 0-2.372-1.2989-3.8144-3.3975-3.8144-2.0986 0-3.3975 1.4424-3.3975 3.8144 0 2.3653 1.2989 3.8145 3.3975 3.8145zm0-1.0596c-1.3945 0-2.1807-1.0117-2.1807-2.7549 0-1.75.7862-2.7549 2.1807-2.7549 1.3945 0 2.1807 1.0049 2.1807 2.7549 0 1.7432-.7862 2.7549-2.1807 2.7549zm5.5986 3.5957c1.3057 0 1.8936-.5058 2.5225-2.2148l2.8779-7.8203h-1.251l-2.0166 6.0634h-.1093l-2.0235-6.0634h-1.2715l2.7276 7.3759-.1367.4375c-.3077.8887-.6768 1.21-1.3536 1.21-.164 0-.3486-.0068-.4921-.0342v1.0049c.164.0273.3691.041.5263.041z" fill="#fff"/><path d="M13.7017 6.28792l2.6127 4.71338-2.3994 4.3189c-.1149.2062-.1751.4384-.1751.6745 0 .236.0602.4682.1751.6745l2.3994 4.3295-2.6127 4.7134c-.4916-.2437-.8998-.6279-1.173-1.1037l-4.15888-7.2248C8.12751 16.9618 8 16.4838 8 15.9973c0-.4864.12751-.9644.36982-1.3863l4.15888-7.2247c.274-.4739.6822-.85608 1.173-1.09838z" fill="url(#paint0_linear)"/><path opacity=".7" d="M13.915 15.3255c-.1139.2056-.1737.4368-.1737.6718 0 .2351.0598.4663.1737.6719l2.3994 4.3295-2.6127 4.7134c-.4916-.2437-.8998-.6279-1.173-1.1037l-4.15888-7.2248c-.33058-.5705 1.51959-1.253 5.54518-2.0528v-.0053z" fill="url(#paint1_linear)"/><path opacity=".5" d="M13.9683 6.76246l2.3461 4.23884-.3893.6772-2.0687-3.50308c-.5972-.97574-1.509-.46921-2.65 1.5036l.1706-.29326 1.1517-1.99946c.2712-.47235.6754-.85437 1.1624-1.09838l.2719.47454h.0053z" fill="url(#paint2_linear)"/><path d="M25.6452 7.3863l4.1589 7.2247c.4959.8531.4959 1.9195 0 2.7726l-4.1589 7.2248c-.2432.4212-.5929.771-1.0141 1.0144-.4211.2433-.8989.3716-1.3852.3719H19.087l5.1719-9.3255c.1139-.2056.1737-.4368.1737-.6719 0-.235-.0598-.4662-.1737-.6718L19.087 6h4.1589c.4863.00031.9641.12857 1.3852.3719.4212.24333.7709.59317 1.0141 1.0144z" fill="url(#paint3_linear)"/><path d="M23.0326 25.9627L18.927 26l4.9693-9.3735c.1111-.2084.1692-.441.1692-.6772 0-.2361-.0581-.4687-.1692-.6771L18.927 6h.9384l5.2146 9.2295c.1236.2181.1881.4646.1872.7152-.001.2506-.0673.4967-.1925.7138-1.1223 1.9505-2.2367 3.9056-3.3431 5.8651-1.0131 1.7809-.5759 2.9272 1.301 3.4391z" fill="url(#paint4_linear)"/><path d="M14.9281 25.9947c-.4266 0-.8531-.1013-1.2264-.2826l5.1293-9.2509c.16-.2879.16-.6398 0-.9277l-5.1293-9.24558c.3813-.18879.8009-.28731 1.2264-.28792h4.1589l5.1719 9.3255c.1139.2056.1737.4368.1737.6718 0 .2351-.0598.4663-.1737.6719l-5.1719 9.3255h-4.1589z" fill="url(#paint5_linear)"/><path opacity=".6" d="M23.8963 15.5335L18.6071 6h.4799l5.1719 9.3255c.1139.2056.1737.4368.1737.6718 0 .2351-.0598.4663-.1737.6719l-5.1719 9.3255h-.4799l5.2892-9.5335c.16-.2879.16-.6398 0-.9277z" fill="url(#paint6_linear)"/><path opacity=".6" d="M18.831 15.5335l-5.1293-9.24558c.16-.08531.3519-.14929.5332-.20261 1.1304 2.03146 2.7993 5.11329 5.012 9.24019.1139.2056.1737.4368.1737.6718 0 .2351-.0598.4663-.1737.6719l-5.092 9.2188c-.1812-.0533-.2772-.0906-.4478-.1706l5.1186-9.2509c.16-.2879.16-.6398 0-.9277l.0053-.0053z" fill="url(#paint7_linear)"/><defs><linearGradient id="paint0_linear" x1="12.1572" y1="25.7121" x2="3.6414" y2="12.0166" gradientUnits="userSpaceOnUse"><stop stop-color="#EB6F07"/><stop offset="1" stop-color="#FAB743"/></linearGradient><linearGradient id="paint1_linear" x1="14.7978" y1="24.0191" x2="10.4131" y2="19.5096" gradientUnits="userSpaceOnUse"><stop stop-color="#D96504"/><stop offset="1" stop-color="#D96504" stop-opacity="0"/></linearGradient><linearGradient id="paint2_linear" x1="13.3517" y1="6.7569" x2="15.6729" y2="10.4855" gradientUnits="userSpaceOnUse"><stop stop-color="#EB6F07"/><stop offset="1" stop-color="#EB720A" stop-opacity="0"/></linearGradient><linearGradient id="paint3_linear" x1="24.6315" y1="25.9947" x2="17.0063" y2="10.1057" gradientUnits="userSpaceOnUse"><stop stop-color="#EE6F05"/><stop offset="1" stop-color="#FAB743"/></linearGradient><linearGradient id="paint4_linear" x1="16.8221" y1="26" x2="29.0307" y2="22.9013" gradientUnits="userSpaceOnUse"><stop stop-color="#D96504" stop-opacity=".8"/><stop offset=".498" stop-color="#D96504" stop-opacity=".2"/><stop offset="1" stop-color="#D96504" stop-opacity="0"/></linearGradient><linearGradient id="paint5_linear" x1="19.0672" y1="25.9947" x2="11.2863" y2="10.3051" gradientUnits="userSpaceOnUse"><stop stop-color="#FFA95F"/><stop offset="1" stop-color="#FFEBC8"/></linearGradient><linearGradient id="paint6_linear" x1="19.079" y1="6.21994" x2="25.5677" y2="7.24005" gradientUnits="userSpaceOnUse"><stop stop-color="#fff" stop-opacity=".5"/><stop offset="1" stop-color="#fff" stop-opacity=".1"/></linearGradient><linearGradient id="paint7_linear" x1="12.9182" y1="26.7197" x2="20.9385" y2="25.5382" gradientUnits="userSpaceOnUse"><stop stop-color="#fff" stop-opacity=".5"/><stop offset="1" stop-color="#fff" stop-opacity=".1"/></linearGradient></defs></svg>